<svg fill="none" height="20" viewBox="0 0 20 20" width="20" xmlns="http://www.w3.org/2000/svg"><path clip-rule="evenodd" d="m18 10c0 4.4183-3.5817 8-8 8-4.41828 0-8-3.5817-8-8 0-4.41828 3.58172-8 8-8 4.4183 0 8 3.58172 8 8zm-8-3c-.36887 0-.6924.19922-.86682.50073-.27654.47806-.88827.64142-1.36633.36488-.47806-.27655-.64142-.88828-.36488-1.36634.51721-.89409 1.48636-1.49927 2.59803-1.49927 1.6569 0 3 1.34315 3 3 0 1.30622-.8348 2.4175-2 2.8293v.1707c0 .5523-.4477 1-1 1-.55227 0-.99999-.4477-.99999-1v-1c0-.55228.44772-1 .99999-1 .5523 0 1-.44772 1-1s-.4477-1-1-1zm0 8c.5523 0 1-.4477 1-1s-.4477-1-1-1c-.55228 0-1 .4477-1 1s.44772 1 1 1z" fill="#4a5568" fill-rule="evenodd"/></svg>