<?xml version="1.0" encoding="UTF-8"?>
<svg id="Layer_1" data-name="Layer 1" xmlns="http://www.w3.org/2000/svg" xmlns:xlink="http://www.w3.org/1999/xlink" viewBox="0 0 937.61 456.73">
  <defs>
    <linearGradient id="linear-gradient" x1="160.96" y1="53.27" x2="641.75" y2="53.27" gradientUnits="userSpaceOnUse">
      <stop offset="0" stop-color="#060606"/>
      <stop offset="1" stop-color="#52514f"/>
    </linearGradient>
    <linearGradient id="linear-gradient-2" x1="160.96" y1="136.94" x2="795.96" y2="136.94" gradientUnits="userSpaceOnUse">
      <stop offset="0" stop-color="#e3c920"/>
      <stop offset="1" stop-color="#f5eb16"/>
    </linearGradient>
    <linearGradient id="linear-gradient-3" x1="0" y1="241.77" x2="797.64" y2="241.77" gradientUnits="userSpaceOnUse">
      <stop offset="0" stop-color="#59c7d8"/>
      <stop offset="1" stop-color="#0c9eb9"/>
    </linearGradient>
    <linearGradient id="linear-gradient-4" x1="1.25" y1="364.04" x2="937.61" y2="364.04" gradientUnits="userSpaceOnUse">
      <stop offset="0" stop-color="#ac4399"/>
      <stop offset="1" stop-color="#e93293"/>
    </linearGradient>
  </defs>
  <path d="m160.96,100.61S180.07,13.16,307.48,14.81c127.41,1.65,122.19,19.65,235.54,19.04,87.68-.47,98.73-33.85,98.73-33.85,0,0,1.65,77.34-70.52,97.56-72.17,20.22-124.82,1.88-190.88-11.75-66.06-13.63-125.53-11.28-157.5-7.52-31.97,3.76-61.89,22.33-61.89,22.33Z" style="fill: url(#linear-gradient); stroke-width: 0px;"/>
  <path d="m161.42,109.7s-14.22,114.73,116.44,110.8c148.57-4.47,219.49-57.63,312.65-74.99,37.85-7.05,138.46-37.38,205.45-4,0,0-3.76-62.76-83.92-81.34-80.16-18.57-166.75,4.23-222.93,23.04-56.18,18.81-145.9,47.01-226.53,50.31-80.63,3.29-101.16-23.82-101.16-23.82Z" style="fill: url(#linear-gradient-2); stroke-width: 0px;"/>
  <path d="m0,331.45s9.05-117.07,196.05-147.16c163.14-26.25,235.44,24.33,365.78,25.4,152.72,1.25,188.05-21.64,235.77-57.61,0,0,6.11,143.86-138.93,164.79-145.04,20.92-230.06-14.1-348.54-22.25-118.48-8.15-180.61-4.31-235.15,6.97C21.93,312.58,0,331.45,0,331.45Z" style="fill: url(#linear-gradient-3); stroke-width: 0px;"/>
  <path d="m1.25,342.74s26.4,111.65,230.21,113.93c168.31,1.88,187.12-37.61,495.22-42.94,180.54,0,210.63,41.06,210.63,41.06,0,0,12.23-111.57-120.98-164.55-41.76-16.61-94.29-20.62-142.61-18.26-94.69,4.64-184.23,33.91-220.5,42.78-54.77,13.4-151.62,38.79-235.31,47.48-83.69,8.7-129.97,10.02-175.36-.94-29.54-7.13-41.29-18.57-41.29-18.57Z" style="fill: url(#linear-gradient-4); stroke-width: 0px;"/>
</svg>